<?xml version="1.0" standalone="no"?>
<!DOCTYPE svg PUBLIC "-//W3C//DTD SVG 20010904//EN"
 "http://www.w3.org/TR/2001/REC-SVG-20010904/DTD/svg10.dtd">
<svg version="1.0" xmlns="http://www.w3.org/2000/svg"
 width="720.000000pt" height="720.000000pt" viewBox="0 0 720.000000 720.000000"
 preserveAspectRatio="xMidYMid meet">
<metadata>
Created by potrace 1.16, written by Peter Selinger 2001-2019
</metadata>
<g transform="translate(0.000000,720.000000) scale(0.100000,-0.100000)"
fill="#000000" stroke="none">
<path d="M3425 6569 c-71 -55 -265 -202 -430 -326 -165 -125 -354 -268 -420
-318 -66 -50 -221 -168 -345 -261 -124 -94 -269 -204 -323 -244 l-97 -74 2
-151 3 -150 34 -3 c19 -2 37 1 40 6 3 5 83 67 176 137 185 140 509 385 785
595 96 73 201 151 233 174 31 22 130 96 220 164 l162 123 3 -1200 2 -1201 140
0 140 0 -2 1204 -3 1205 30 -23 c17 -12 368 -276 780 -587 732 -551 751 -564
795 -564 l45 0 3 137 c2 122 1 139 -15 152 -10 9 -164 125 -343 258 -179 134
-361 271 -405 304 -44 33 -116 87 -160 120 -44 32 -87 64 -95 71 -8 6 -178
134 -377 282 -442 331 -389 315 -578 170z"/>
<path d="M937 5832 c-16 -17 -17 -194 -17 -2344 0 -2240 1 -2326 18 -2341 17
-16 216 -17 2664 -17 2550 0 2645 1 2661 18 16 17 17 194 17 2344 0 2240 -1
2326 -18 2341 -16 15 -54 17 -319 17 -166 0 -308 -3 -317 -6 -20 -8 -23 -113
-4 -132 9 -9 80 -12 260 -12 l248 0 0 -2210 0 -2210 -2530 0 -2530 0 0 2210 0
2210 258 0 c198 1 261 4 275 14 23 18 25 121 1 130 -9 3 -159 6 -333 6 -295 0
-319 -1 -334 -18z"/>
</g>
</svg>
